<?xml version="1.0" standalone="no"?>
<!DOCTYPE svg PUBLIC "-//W3C//DTD SVG 20010904//EN"
 "http://www.w3.org/TR/2001/REC-SVG-20010904/DTD/svg10.dtd">
<svg version="1.0" xmlns="http://www.w3.org/2000/svg"
 width="93.000000pt" height="134.000000pt" viewBox="0 0 93.000000 134.000000"
 preserveAspectRatio="xMidYMid meet">

<g transform="translate(0.000000,134.000000) scale(0.100000,-0.100000)"
fill="#000000" stroke="none">
<path d="M226 1322 c-3 -5 3 -21 14 -35 11 -14 20 -28 20 -32 0 -5 91 -153
107 -174 2 -2 6 -2 9 2 3 3 -4 21 -16 39 l-22 33 31 -35 c17 -19 31 -38 31
-42 0 -4 14 -5 30 -1 38 7 39 -9 5 -41 -32 -30 -80 -50 -100 -42 -14 5 -14 9
0 35 20 41 20 42 -22 110 l-38 61 -115 -3 -115 -2 -2 -430 c-1 -382 0 -426 13
-391 7 21 11 42 8 47 -3 5 3 12 13 15 10 3 26 10 35 15 25 13 25 13 32 -29 3
-21 16 -54 29 -73 l23 -34 117 -2 117 -1 -19 27 c-11 15 -27 34 -36 41 -9 7
-25 27 -37 44 -16 24 -17 27 -3 14 13 -12 24 -14 40 -8 12 4 39 9 61 11 33 2
45 -3 74 -31 19 -19 29 -30 21 -25 -11 6 -13 4 -8 -9 4 -10 7 -20 7 -23 0 -3
7 1 17 8 15 13 15 12 2 -9 -8 -12 -17 -22 -22 -22 -4 0 -5 5 -2 10 9 15 -4 12
-21 -5 -14 -13 -13 -15 8 -16 13 -1 28 0 33 1 31 7 55 6 55 -1 0 -4 61 -7 135
-6 l135 2 0 -87 0 -88 -405 0 -405 0 0 89 c0 51 -4 93 -10 96 -7 4 -10 -42 -8
-142 l3 -148 420 0 420 0 0 580 0 580 -287 0 c-157 0 -284 3 -282 6 2 4 -12
27 -31 52 -19 24 -32 47 -29 49 2 3 -2 11 -10 17 -8 7 -17 8 -20 3z m289 -266
l34 -39 -24 -48 c-14 -27 -25 -56 -25 -66 0 -10 12 5 26 32 34 67 37 69 63 41
l22 -24 -61 -83 c-75 -102 -92 -110 -130 -69 -37 39 -80 41 -109 4 l-21 -27 0
49 c0 27 5 67 11 89 l11 39 52 -55 c28 -30 61 -68 74 -84 l23 -30 -22 35 c-13
19 -44 63 -71 96 l-48 62 28 4 c15 3 35 8 44 12 13 6 21 -1 33 -30 8 -20 18
-35 21 -31 3 3 -2 19 -11 37 -16 31 -16 32 15 66 24 28 28 39 20 49 -8 9 -9
26 -4 47 l9 33 3 -36 c2 -23 15 -48 37 -73z m86 -203 c-9 -12 -21 -23 -27 -23
-5 0 -23 -13 -39 -30 -46 -48 -41 -26 9 39 38 49 50 58 60 49 11 -11 10 -17
-3 -35z m-230 -108 c23 -4 49 -1 72 8 24 11 34 12 31 4 -2 -7 15 -20 40 -30
48 -20 126 -74 126 -88 0 -5 -34 -34 -75 -65 -56 -42 -80 -55 -97 -50 -13 3
-54 30 -92 60 -38 31 -72 54 -75 52 -3 -2 -7 14 -9 36 -1 22 -11 57 -21 78
l-18 38 41 -18 c23 -10 57 -21 77 -25z m316 3 c-12 -24 -24 -44 -29 -46 -4 -2
-5 -17 -1 -33 l6 -30 -34 31 c-19 17 -59 45 -89 61 -30 16 -44 26 -30 22 41
-13 103 -7 150 15 25 11 46 21 46 21 1 1 -8 -18 -19 -41z m-450 0 c-3 -7 -5
-2 -5 12 0 14 2 19 5 13 2 -7 2 -19 0 -25z m493 12 c0 -11 -4 -20 -9 -20 -5 0
-7 9 -4 20 3 11 7 20 9 20 2 0 4 -9 4 -20z m60 -4 c0 -2 -12 -11 -27 -20 l-28
-17 24 20 c23 21 31 25 31 17z m69 -82 c-8 -10 -8 -14 0 -14 16 0 14 -25 -4
-40 -8 -7 -15 -17 -15 -22 0 -6 7 -5 15 2 13 11 15 5 15 -41 l0 -52 -25 23
c-13 12 -24 25 -23 29 3 30 -5 32 -23 6 -26 -39 -43 -77 -40 -93 1 -7 -14 -27
-34 -46 -19 -18 -35 -30 -35 -25 0 5 -7 6 -15 3 -22 -9 -18 5 8 28 l22 20 -23
-5 c-12 -3 -20 -1 -16 4 3 5 14 9 24 9 10 0 21 4 25 10 3 5 11 8 18 6 7 -1 8
-1 4 2 -5 2 -1 13 9 23 24 26 10 24 -34 -6 -46 -31 -52 -31 -52 1 0 23 3 25
26 20 24 -6 26 -5 20 18 -5 19 -2 26 14 31 27 9 25 24 -2 18 l-23 -5 23 20
c27 25 28 32 2 25 -24 -6 -27 15 -4 24 15 6 15 7 0 19 -10 7 -13 15 -8 18 6 3
22 -8 36 -25 14 -17 26 -26 26 -21 0 6 -13 24 -30 40 -33 34 -39 48 -13 34 17
-10 50 2 65 23 5 6 8 5 8 -2 0 -7 7 -10 15 -7 10 4 18 -2 24 -17 8 -23 9 -22
17 11 l9 35 3 -33 c2 -18 -2 -40 -9 -48z m-779 40 c0 -10 14 -14 53 -15 28 -1
63 -2 77 -3 17 -1 27 5 31 19 4 14 8 4 13 -30 7 -45 6 -51 -18 -72 -14 -12
-21 -25 -16 -28 6 -3 13 1 16 9 3 9 10 16 15 16 9 0 5 -72 -6 -89 -9 -15 7
-14 31 3 20 14 20 13 20 -75 -1 -49 -4 -89 -8 -89 -3 0 -12 19 -20 43 -7 25
-19 42 -28 42 -8 0 -15 7 -15 15 -1 8 -6 25 -13 36 -6 12 -8 24 -5 28 3 3 2 6
-4 6 -5 0 -15 12 -21 26 -12 25 -38 24 -28 -2 3 -8 1 -14 -5 -14 -6 0 -29 -14
-50 -31 l-39 -31 0 132 c0 85 4 129 10 125 6 -3 10 -13 10 -21z m358 -202 c17
-13 32 -29 32 -35 0 -5 -8 -3 -17 5 -16 13 -58 32 -118 54 -19 6 -18 7 5 14
27 8 48 -1 98 -38z m-297 -23 c-5 -13 -10 -19 -10 -12 -1 15 10 45 15 40 3 -2
0 -15 -5 -28z m664 -109 c-3 -5 -13 -10 -21 -10 -8 0 -12 5 -9 10 3 6 13 10
21 10 8 0 12 -4 9 -10z m-598 -267 c-17 -4 -17 -6 -2 -23 19 -21 12 -41 -13
-39 -15 1 -15 2 1 6 22 6 22 15 -3 31 -25 15 -17 32 13 31 18 -1 19 -2 4 -6z
m93 -8 c-7 -8 -10 -21 -7 -30 4 -8 2 -17 -3 -20 -6 -4 -10 8 -10 27 0 25 -3
29 -10 18 -5 -8 -10 -10 -10 -4 0 16 11 24 33 24 16 0 17 -3 7 -15z m70 -17
c0 -36 15 -28 23 12 3 17 5 13 4 -10 -2 -28 -6 -35 -22 -35 -15 0 -21 8 -23
33 -2 18 1 32 7 32 6 0 11 -14 11 -32z m115 -3 c0 -23 -5 -31 -22 -33 -20 -3
-23 1 -23 33 0 32 3 36 23 33 17 -2 22 -10 22 -33z m88 28 c-7 -2 -13 -15 -13
-28 0 -13 6 -26 13 -28 6 -3 3 -6 -8 -6 -16 -1 -20 5 -20 34 0 29 4 35 20 34
11 0 14 -3 8 -6z m92 -28 c0 -23 -4 -30 -20 -30 -21 0 -31 25 -21 51 11 28 41
12 41 -21z m75 25 c-13 -8 -12 -11 5 -25 20 -15 20 -15 1 -30 -10 -8 -24 -11
-30 -7 -7 4 -5 8 7 10 21 4 22 11 0 27 -19 14 -10 35 15 35 15 0 15 -2 2 -10z"/>
<path d="M580 961 c0 -5 5 -13 10 -16 6 -3 10 -2 10 4 0 5 -4 13 -10 16 -5 3
-10 2 -10 -4z"/>
<path d="M486 863 c-6 -14 -5 -15 5 -6 7 7 10 15 7 18 -3 3 -9 -2 -12 -12z"/>
<path d="M585 870 c-3 -5 -1 -10 4 -10 6 0 11 5 11 10 0 6 -2 10 -4 10 -3 0
-8 -4 -11 -10z"/>
<path d="M401 720 c-58 -32 -94 -60 -86 -68 2 -2 18 8 36 22 17 15 49 36 70
47 22 11 39 22 39 24 0 7 -1 7 -59 -25z"/>
<path d="M477 603 c-8 -45 -6 -73 4 -73 5 0 9 23 9 50 0 55 -6 65 -13 23z"/>
<path d="M795 700 c-14 -16 -15 -20 -4 -20 16 0 39 19 39 32 0 14 -16 9 -35
-12z"/>
<path d="M760 699 c0 -5 5 -7 10 -4 6 3 10 8 10 11 0 2 -4 4 -10 4 -5 0 -10
-5 -10 -11z"/>
<path d="M778 583 c-21 -5 -24 -23 -4 -23 8 0 16 7 20 15 3 8 4 14 3 14 -1 -1
-10 -3 -19 -6z"/>
<path d="M135 610 c-10 -11 -15 -23 -12 -27 7 -6 36 25 37 40 0 11 -6 8 -25
-13z"/>
<path d="M367 539 c7 -7 15 -10 18 -7 3 3 -2 9 -12 12 -14 6 -15 5 -6 -5z"/>
<path d="M460 85 c0 -15 4 -24 10 -20 6 3 10 12 10 20 0 8 -4 17 -10 20 -6 4
-10 -5 -10 -20z"/>
<path d="M634 96 c-4 -10 -2 -22 4 -28 8 -8 13 -7 18 6 4 10 2 22 -4 28 -8 8
-13 7 -18 -6z"/>
<path d="M133 1223 c20 -2 54 -2 75 0 20 2 3 4 -38 4 -41 0 -58 -2 -37 -4z"/>
<path d="M443 1223 c15 -2 39 -2 55 0 15 2 2 4 -28 4 -30 0 -43 -2 -27 -4z"/>
<path d="M598 1223 c28 -2 76 -2 105 0 28 2 5 3 -53 3 -58 0 -81 -1 -52 -3z"/>
<path d="M808 1223 c18 -2 45 -2 60 0 15 2 0 4 -33 4 -33 0 -45 -2 -27 -4z"/>
<path d="M15 610 c0 -327 1 -461 2 -297 2 163 2 431 0 595 -1 163 -2 29 -2
-298z"/>
<path d="M420 405 c-13 -14 -21 -27 -18 -30 2 -3 17 9 33 25 16 17 24 30 19
30 -6 0 -21 -11 -34 -25z"/>
<path d="M105 220 l0 -61 39 3 c44 3 63 28 22 28 -24 0 -26 3 -26 45 0 36 -3
45 -17 45 -15 0 -18 -10 -18 -60z"/>
<path d="M246 248 c-7 -18 -16 -44 -19 -58 -6 -25 -5 -25 52 -26 l59 -1 -20
59 c-24 69 -51 79 -72 26z m32 -55 c-14 -18 -19 -12 -11 16 4 16 8 19 14 10 4
-7 3 -19 -3 -26z"/>
<path d="M360 221 c0 -54 2 -61 19 -61 14 0 21 8 23 28 l4 27 14 -27 c9 -19
21 -28 38 -28 21 0 23 2 11 16 -7 9 -13 35 -14 58 l0 41 -47 3 -48 3 0 -60z
m70 25 c0 -2 -7 -9 -15 -16 -12 -10 -15 -10 -15 4 0 9 7 16 15 16 8 0 15 -2
15 -4z"/>
<path d="M500 220 c0 -53 2 -60 20 -60 18 0 20 7 20 60 0 53 -2 60 -20 60 -18
0 -20 -7 -20 -60z"/>
<path d="M605 268 c-25 -70 -34 -102 -31 -106 12 -12 35 10 41 38 5 23 10 29
18 21 7 -7 6 -15 -3 -26 -16 -19 -12 -23 28 -31 l31 -6 -20 61 c-16 47 -25 61
-40 61 -11 0 -22 -6 -24 -12z"/>
<path d="M710 220 c0 -53 2 -60 20 -60 15 0 20 7 20 28 l1 27 22 -27 c13 -16
30 -28 40 -28 14 0 17 10 17 60 0 53 -2 60 -20 60 -15 0 -20 -7 -20 -27 l-1
-28 -20 28 c-11 15 -29 27 -40 27 -17 0 -19 -8 -19 -60z"/>
</g>
</svg>
